# xmcd CD database file
#
# Track frame offsets:
#	150
#	12158
#	26263
#	40015
#	52580
#	65310
#	78988
#	91278
#	103471
#	117916
#	132042
#	145744
#	159774
#	173156
#	184856
#	198249
#	209505
#	223210
#	236664
#	251532
#	266757
#
# Disc length: 3760 seconds
#
# Revision: 0
# Processed by: cddbd v1.5.1PL0 Copyright (c) Steve Scherf et al.
# Submitted via: CDex 1.51
#
DISCID=1a0eae15
DTITLE=Cliff Carlisle - A Country Legacy 1930-1938 #D
DYEAR=2004
DGENRE=Country
TTITLE0=Trouble Minded Blues
TTITLE1=Mean Mama Don't Worry Me, A
TTITLE2=Why Did It Have To Be?
TTITLE3=When It's Round Up Time In Texas
TTITLE4=Shine On Me
TTITLE5=Stretch Of 28 Years, A
TTITLE6=Footprints In The Snow
TTITLE7=Gonna Raise A Ruckus Tonight
TTITLE8=Going Down The Valley One By One
TTITLE9=Memories That Haunt Me
TTITLE10=Black Jack David
TTITLE11=Going Back To Alabama
TTITLE12=Lonesome For Caroline
TTITLE13=Uncloudy Day
TTITLE14=Broken Heart
TTITLE15=Shot The Innocent Man
TTITLE16=Girl In The Blue Velvet Band
TTITLE17=Sally Let Your Bangs Hang Down
TTITLE18=Where My Memory Lies
TTITLE19=New Memories Of You That Haunt Me
TTITLE20=On The Banks Of The Rio Grande
EXTD=YEAR: 2004
EXTT0=
EXTT1=
EXTT2=
EXTT3=
EXTT4=
EXTT5=
EXTT6=
EXTT7=
EXTT8=
EXTT9=
EXTT10=
EXTT11=
EXTT12=
EXTT13=
EXTT14=
EXTT15=
EXTT16=
EXTT17=
EXTT18=
EXTT19=
EXTT20=
PLAYORDER=
